HIERARCHY
ROOT Hips
{
	OFFSET 0.000000 0.000000 0.000000
	CHANNELS 6 Xposition Yposition Zposition Zrotation Yrotation Xrotation 
	JOINT LHipJoint
	{
		OFFSET 0.000000 0.000000 0.000000
		CHANNELS 3 Zrotation Yrotation Xrotation
		JOINT LeftUpLeg
		{
			OFFSET 1.363060 -1.794630 0.839290
			CHANNELS 3 Zrotation Yrotation Xrotation
			JOINT LeftLeg
			{
				OFFSET 2.448110 -6.726130 0.000000
				CHANNELS 3 Zrotation Yrotation Xrotation
				JOINT LeftFoot
				{
					OFFSET 2.562200 -7.039590 0.000000
					CHANNELS 3 Zrotation Yrotation Xrotation
					JOINT LeftToeBase
					{
						OFFSET 0.157640 -0.433110 2.322550
						CHANNELS 3 Zrotation Yrotation Xrotation
						End Site
						{
							OFFSET 0.000000 0.000000 0.000000
						}
					}
				}
			}
		}
	}
	JOINT RHipJoint
	{
		OFFSET 0.000000 0.000000 0.000000
		CHANNELS 3 Zrotation Yrotation Xrotation
		JOINT RightUpLeg
		{
			OFFSET -1.305520 -1.794630 0.839290
			CHANNELS 3 Zrotation Yrotation Xrotation
			JOINT RightLeg
			{
				OFFSET -2.542530 -6.985550 0.000000
				CHANNELS 3 Zrotation Yrotation Xrotation
				JOINT RightFoot
				{
					OFFSET -2.568260 -7.056230 0.000000
					CHANNELS 3 Zrotation Yrotation Xrotation
					JOINT RightToeBase
					{
						OFFSET -0.164730 -0.452590 2.363150
						CHANNELS 3 Zrotation Yrotation Xrotation
						End Site
						{
							OFFSET 0.000000 0.000000 0.000000
						}
					}
				}
			}
		}
	}
	JOINT LowerBack
	{
		OFFSET 0.000000 0.000000 0.000000
		CHANNELS 3 Zrotation Yrotation Xrotation
		JOINT Spine
		{
			OFFSET 0.028270 2.035590 -0.193380
			CHANNELS 3 Zrotation Yrotation Xrotation
			JOINT Spine1
			{
				OFFSET 0.056720 2.048850 -0.042750
				CHANNELS 3 Zrotation Yrotation Xrotation
				JOINT Neck
				{
					OFFSET 0.000000 0.000000 0.000000
					CHANNELS 3 Zrotation Yrotation Xrotation
					JOINT Neck1
					{
						OFFSET -0.054170 1.746240 0.172020
						CHANNELS 3 Zrotation Yrotation Xrotation
						JOINT Head
						{
							OFFSET 0.104070 1.761360 -0.123970
							CHANNELS 3 Zrotation Yrotation Xrotation
							End Site
							{
								OFFSET 0.000000 0.000000 0.000000
							}
						}
					}
				}
				JOINT LeftShoulder
				{
					OFFSET 0.000000 0.000000 0.000000
					CHANNELS 3 Zrotation Yrotation Xrotation
					JOINT LeftArm
					{
						OFFSET 3.362410 1.200890 -0.311210
						CHANNELS 3 Zrotation Yrotation Xrotation
						JOINT LeftForeArm
						{
							OFFSET 4.983000 -0.000000 -0.000000
							CHANNELS 3 Zrotation Yrotation Xrotation
							JOINT LeftHand
							{
								OFFSET 3.483560 -0.000000 -0.000000
								CHANNELS 3 Zrotation Yrotation Xrotation
								JOINT LeftFingerBase
								{
									OFFSET 0.000000 0.000000 0.000000
									CHANNELS 3 Zrotation Yrotation Xrotation
									JOINT LeftHandIndex1
									{
										OFFSET 0.715260 -0.000000 -0.000000
										CHANNELS 3 Zrotation Yrotation Xrotation
										End Site
										{
											OFFSET 0.000000 0.000000 0.000000
										}
									}
								}
								JOINT LThumb
								{
									OFFSET 0.000000 0.000000 0.000000
									CHANNELS 3 Zrotation Yrotation Xrotation
									End Site
									{
										OFFSET 0.000000 0.000000 0.000000
									}
								}
							}
						}
					}
				}
				JOINT RightShoulder
				{
					OFFSET 0.000000 0.000000 0.000000
					CHANNELS 3 Zrotation Yrotation Xrotation
					JOINT RightArm
					{
						OFFSET -3.136600 1.374050 -0.404650
						CHANNELS 3 Zrotation Yrotation Xrotation
						JOINT RightForeArm
						{
							OFFSET -5.241900 -0.000000 -0.000000
							CHANNELS 3 Zrotation Yrotation Xrotation
							JOINT RightHand
							{
								OFFSET -3.444170 -0.000000 -0.000000
								CHANNELS 3 Zrotation Yrotation Xrotation
								JOINT RightFingerBase
								{
									OFFSET 0.000000 0.000000 0.000000
									CHANNELS 3 Zrotation Yrotation Xrotation
									JOINT RightHandIndex1
									{
										OFFSET -0.622530 -0.000000 -0.000000
										CHANNELS 3 Zrotation Yrotation Xrotation
										End Site
										{
											OFFSET 0.000000 0.000000 0.000000
										}
									}
								}
								JOINT RThumb
								{
									OFFSET 0.000000 0.000000 0.000000
									CHANNELS 3 Zrotation Yrotation Xrotation
									End Site
									{
										OFFSET 0.000000 0.000000 0.000000
									}
								}
							}
						}
					}
				}
			}
		}
	}
}
MOTION
Frames: 11
Frame Time: 0.008333
5.858509 16.505689 -7.789969 -176.788071 29.634530 -169.533699 -12.978835 4.330517 0.865190 -5.743294 1.600228 1.866058 -1.151280 2.330073 34.712553 -0.139411 -4.959236 -2.912423 -0.191299 0.000000 -66.256399 7.109895 -0.584007 3.006126 9.036230 8.547680 -37.485081 1.749877 -1.928065 32.846990 -0.342093 -0.672886 -2.094803 -0.410800 0.000000 -38.131101 8.293103 -4.945096 -4.627060 1.315775 -5.683443 -3.834239 -6.060857 -5.704477 -0.198917 11.173417 -16.664357 -8.739435 -3.778612 -0.287473 -0.204821 0.000000 0.000000 0.000000 5.028400 -0.734290 -0.991334 -48.047222 -28.716756 -4.977429 -0.733944 -78.399759 -0.097409 9.822052 -3.571258 -0.361892 -0.082234 0.627980 0.000000 0.000000 0.000000 0.000000 0.000000 0.000000 0.000000 18.853766 -16.331102 1.917794 64.686699 -21.992861 13.881818 4.067321 30.189111 -0.013658 9.553763 -3.584101 -0.303383 0.049311 0.062839 -0.000000 0.000000 0.000000 0.000000 0.000000 0.000000 0.000000 
5.941319 16.476815 -7.896545 -176.282624 28.937753 -169.542808 -13.210150 4.372255 0.743788 -4.525611 2.386092 0.807529 -0.933575 2.525169 37.356567 -0.142866 -5.581100 -1.396238 -0.361699 0.000000 -68.636800 7.041353 -0.656851 2.839643 9.836422 8.214957 -37.343592 1.734255 -2.045304 34.496172 -0.452415 -1.006713 -3.411097 -0.380900 0.000000 -37.778301 8.636237 -4.898555 -4.400467 1.356457 -5.663139 -3.836422 -6.183628 -5.690002 -0.371514 11.332314 -16.056446 -8.584103 -3.926916 -0.300287 -0.167260 0.000000 0.000000 0.000000 4.831816 -1.130314 -0.882120 -50.112588 -27.741487 -4.908880 -0.774715 -77.212041 -0.097895 10.153496 -3.867812 -0.399907 -0.088825 0.616530 0.000000 0.000000 0.000000 0.000000 0.000000 0.000000 0.000000 19.485518 -15.733511 1.923347 63.955577 -20.951954 14.381140 4.056605 29.853164 -0.012859 9.260072 -3.472432 -0.284672 0.050481 0.060119 -0.000000 0.000000 0.000000 0.000000 0.000000 0.000000 0.000000 
6.020130 16.449680 -7.998261 -175.711728 28.224082 -169.557486 -13.452843 4.388648 0.597151 -3.224048 3.208107 -0.336082 -0.697953 2.724127 40.122008 -0.112020 -6.033152 0.217916 -0.574300 0.000000 -70.081300 6.955018 -0.735853 2.651771 10.728182 7.864278 -37.044845 1.741427 -2.144556 35.939233 -0.564532 -1.342827 -4.742788 -0.334300 0.000000 -37.354400 9.004645 -4.858675 -4.108571 1.397459 -5.648540 -3.828771 -6.319531 -5.682054 -0.556922 11.528085 -15.371115 -8.412549 -4.078232 -0.313069 -0.126364 0.000000 0.000000 0.000000 4.705776 -1.544380 -0.771244 -52.240537 -26.703393 -4.969587 -0.819033 -75.839977 -0.098974 10.578397 -4.223373 -0.448963 -0.094879 0.604096 0.000000 0.000000 0.000000 0.000000 0.000000 0.000000 0.000000 20.160127 -15.079759 1.940520 63.255806 -19.787715 14.703702 4.052440 29.352512 -0.012115 8.895065 -3.452280 -0.271561 0.052348 0.057273 -0.000000 0.000000 0.000000 0.000000 0.000000 0.000000 0.000000 
6.095678 16.424697 -8.094943 -175.102698 27.494885 -169.587339 -13.693459 4.375912 0.431458 -1.895335 4.021702 -1.545359 -0.450470 2.925649 42.977075 -0.041557 -6.184752 1.862776 -0.798700 0.000001 -70.398000 6.857767 -0.818494 2.447454 11.676995 7.494746 -36.590194 1.765972 -2.224560 37.150477 -0.678269 -1.686041 -6.038607 -0.273400 0.000001 -36.855700 9.373517 -4.826641 -3.761811 1.435001 -5.638729 -3.808663 -6.463641 -5.679151 -0.738160 11.757664 -14.662024 -8.242495 -4.224614 -0.324971 -0.086910 0.000000 0.000000 0.000000 4.646026 -1.953072 -0.661731 -54.408490 -25.650603 -5.151203 -0.863443 -74.228380 -0.100662 11.114428 -4.637117 -0.511363 -0.100316 0.590210 0.000000 0.000000 0.000000 0.000000 0.000000 0.000000 0.000000 20.855712 -14.427301 1.966450 62.587583 -18.435721 14.935863 4.051969 28.657098 -0.011394 8.437624 -3.501321 -0.260748 0.054889 0.054230 -0.000000 0.000000 0.000000 0.000000 0.000000 0.000000 0.000000 
6.168648 16.402446 -8.186709 -174.475012 26.751596 -169.634293 -13.923399 4.331759 0.253199 -0.579852 4.798382 -2.813248 -0.197449 3.128995 45.893987 0.069466 -5.925855 3.455253 -0.985200 0.000000 -69.433201 6.753064 -0.903399 2.235857 12.656342 7.118710 -35.989375 1.802783 -2.283967 38.109230 -0.795393 -2.054154 -7.251124 -0.202500 -0.000000 -36.288600 9.729340 -4.801469 -3.378151 1.466034 -5.632151 -3.778934 -6.617337 -5.679406 -0.913849 12.014806 -13.916006 -8.070017 -4.366628 -0.336103 -0.047685 0.000000 0.000000 0.000000 4.644279 -2.354132 -0.547423 -56.584913 -24.602224 -5.443565 -0.905474 -72.337384 -0.102852 11.775119 -5.100266 -0.588717 -0.105211 0.574253 0.000000 0.000000 0.000000 0.000000 0.000000 0.000000 0.000000 21.570056 -13.758334 1.997149 61.969325 -16.942607 14.989731 4.055892 27.802297 -0.010743 7.908914 -3.630702 -0.252738 0.057970 0.050944 -0.000000 0.000000 0.000000 0.000000 0.000000 0.000000 0.000000 
6.239727 16.383522 -8.273972 -173.849630 25.996406 -169.699632 -14.134161 4.256159 0.069432 0.678061 5.515455 -4.134114 0.054368 3.333562 48.842256 0.218924 -5.175095 4.893035 -1.072600 -0.000000 -67.010600 6.646125 -0.988164 2.026167 13.634486 6.746356 -35.262161 1.846485 -2.322627 38.812541 -0.917412 -2.462482 -8.346597 -0.125200 0.000000 -35.667200 10.055700 -4.781641 -2.977112 1.487422 -5.626830 -3.741785 -6.780514 -5.680507 -1.078194 12.291459 -13.135176 -7.896239 -4.503211 -0.346414 -0.008858 0.000000 0.000000 0.000000 4.687013 -2.737069 -0.423100 -58.735310 -23.588317 -5.826596 -0.942569 -70.125745 -0.105326 12.568109 -5.595915 -0.682025 -0.109543 0.555536 0.000000 0.000000 0.000000 0.000000 0.000000 0.000000 0.000000 22.294141 -13.069103 2.028027 61.413495 -15.336926 14.813702 4.063296 26.816115 -0.010169 7.317405 -3.827833 -0.245827 0.061458 0.047304 -0.000000 0.000000 0.000000 0.000000 0.000000 0.000000 0.000000 
6.309585 16.368637 -8.357323 -173.245260 25.232645 -169.779723 -14.320598 4.150999 -0.114001 1.845304 6.162614 -5.510179 0.298297 3.539431 51.796423 0.401435 -3.903329 6.042886 -1.004800 0.000000 -62.751700 6.540236 -1.070579 1.828276 14.585932 6.394345 -34.435350 1.892452 -2.340964 39.266754 -1.046398 -2.928110 -9.303378 -0.045000 0.000000 -35.016000 10.343294 -4.764747 -2.578531 1.499286 -5.620673 -3.695581 -6.946704 -5.679755 -1.207995 12.576551 -12.394013 -7.746611 -4.627555 -0.355229 0.022777 0.000000 0.000000 0.000000 4.751914 -3.070134 -0.291844 -60.829359 -22.665045 -6.266562 -0.972467 -67.550132 -0.107751 13.491929 -6.098717 -0.790189 -0.113119 0.533401 0.000000 0.000000 0.000000 0.000000 0.000000 0.000000 0.000000 23.001615 -12.432027 2.053977 60.907754 -13.539599 14.522250 4.069293 25.688856 -0.009613 6.638322 -4.042141 -0.234715 0.065273 0.043193 -0.000000 0.000000 0.000000 0.000000 0.000000 0.000000 0.000000 
6.378757 16.358458 -8.437324 -172.680982 24.463057 -169.876275 -14.476777 4.020632 -0.291597 2.886415 6.735519 -6.935856 0.529749 3.745531 54.713855 0.611758 -2.127776 6.794797 -0.755001 -0.000000 -56.698300 6.441681 -1.147863 1.649345 15.481544 6.071005 -33.534851 1.936479 -2.340537 39.492234 -1.183263 -3.459013 -10.115480 0.036200 0.000000 -34.357401 10.576781 -4.748631 -2.199551 1.498288 -5.611520 -3.644586 -7.117109 -5.675018 -1.306445 12.860307 -11.665186 -7.610704 -4.743097 -0.363019 0.050242 0.000000 0.000000 0.000000 4.826317 -3.355586 -0.146009 -62.832737 -21.839846 -6.738166 -0.994252 -64.588976 -0.109699 14.536285 -6.570651 -0.909505 -0.115697 0.507256 0.000000 0.000000 0.000000 0.000000 0.000000 0.000000 0.000000 23.692617 -11.809019 2.070955 60.466229 -11.629134 14.002592 4.073213 24.482249 -0.009086 5.890883 -4.256136 -0.218503 0.069230 0.038501 -0.000000 0.000000 0.000000 0.000000 0.000000 0.000000 0.000000 
6.447585 16.353674 -8.514742 -172.166444 23.691184 -169.983673 -14.601189 3.870076 -0.459291 3.783369 7.238097 -8.409592 0.745213 3.950513 57.550456 0.842623 0.067469 7.043776 -0.342101 -0.000000 -48.891100 6.352783 -1.218565 1.495780 16.305613 5.790181 -32.586214 1.976218 -2.323030 39.510676 -1.329231 -4.062160 -10.786390 0.116100 -0.000000 -33.718099 10.752245 -4.730105 -1.854731 1.485183 -5.596973 -3.588937 -7.286140 -5.663707 -1.360480 13.130990 -10.995577 -7.502602 -4.847241 -0.369597 0.069880 0.000000 0.000000 0.000000 4.891669 -3.576363 0.012300 -64.720408 -21.142169 -7.209415 -1.007939 -61.221546 -0.110703 15.678258 -6.966785 -1.032667 -0.116777 0.476801 0.000000 0.000000 0.000000 0.000000 0.000000 0.000000 0.000000 24.350120 -11.241668 2.075639 60.075044 -9.570106 13.326733 4.070842 23.216432 -0.008541 5.061507 -4.418683 -0.193989 0.073244 0.033170 -0.000000 0.000000 0.000000 0.000000 0.000000 0.000000 0.000000 
6.516379 16.354852 -8.590138 -171.711080 22.921573 -170.099945 -14.692804 3.704935 -0.612233 4.523017 7.670624 -9.920657 0.943189 4.150443 60.245619 1.088453 2.553120 6.772576 0.168200 -0.000000 -40.013800 6.275994 -1.281570 1.370853 17.046447 5.560099 -31.608702 2.010243 -2.290479 39.347340 -1.484630 -4.736611 -11.329088 0.193200 0.000001 -33.117600 10.866391 -4.705963 -1.555378 1.459569 -5.574512 -3.533475 -7.451799 -5.643825 -1.378392 13.376091 -10.354220 -7.407491 -4.943104 -0.375447 0.085945 0.000000 0.000000 0.000000 4.936517 -3.743857 0.188519 -66.468174 -20.560995 -7.663233 -1.014845 -57.447600 -0.110360 16.882518 -7.234185 -1.147764 -0.115686 0.442124 0.000000 0.000000 0.000000 0.000000 0.000000 0.000000 0.000000 24.966175 -10.688842 2.067497 59.740997 -7.442431 12.406430 4.060969 21.955798 -0.007967 4.166148 -4.500381 -0.161674 0.077168 0.027102 -0.000000 0.000000 0.000000 0.000000 0.000000 0.000000 0.000000 
6.585177 16.362416 -8.664164 -171.319940 22.157956 -170.220501 -14.751701 3.530424 -0.744285 5.096199 8.022959 -11.452636 1.123508 4.338868 62.735164 1.345658 5.174603 6.079365 0.689300 0.000000 -31.344400 6.213041 -1.335797 1.274056 17.696843 5.382458 -30.618647 2.038494 -2.244992 39.027761 -1.648423 -5.471771 -11.762814 0.266700 -0.000000 -32.568100 10.917796 -4.673698 -1.307051 1.422620 -5.542053 -3.478169 -7.607687 -5.613340 -1.353690 13.586706 -9.779386 -7.334413 -5.029302 -0.380509 0.096160 0.000000 0.000000 0.000000 4.949076 -3.852402 0.378409 -68.060752 -20.105512 -8.079784 -1.017165 -53.270108 -0.108375 18.098983 -7.323456 -1.239482 -0.111682 0.403856 0.000000 0.000000 0.000000 0.000000 0.000000 0.000000 0.000000 25.528962 -10.185241 2.046395 59.443076 -5.218951 11.335217 4.039935 20.729938 -0.007331 3.200169 -4.453925 -0.121856 0.080957 0.020303 -0.000000 0.000000 0.000000 0.000000 0.000000 0.000000 0.000000 
